<?xml version="1.0" standalone="no"?>
<!DOCTYPE svg PUBLIC "-//W3C//DTD SVG 20010904//EN"
 "http://www.w3.org/TR/2001/REC-SVG-20010904/DTD/svg10.dtd">
<svg version="1.0" xmlns="http://www.w3.org/2000/svg"
 width="590.000000pt" height="409.000000pt" viewBox="0 0 590.000000 409.000000"
 preserveAspectRatio="xMidYMid meet">
<metadata>
Created by potrace 1.16, written by Peter Selinger 2001-2019
</metadata>
<g transform="translate(0.000000,409.000000) scale(0.100000,-0.100000)"
fill="#000000" stroke="none">
<path d="M3475 1980 c-182 -38 -364 -173 -451 -336 -62 -116 -78 -179 -78
-319 -1 -120 15 -235 33 -235 3 0 29 37 56 83 49 80 50 84 56 182 8 118 30
180 96 273 25 35 70 83 101 108 56 43 204 110 222 99 7 -5 -24 -62 -112 -203
-17 -27 -16 -28 21 -92 20 -36 41 -64 46 -64 5 1 18 18 29 37 12 19 54 88 94
152 39 64 72 120 72 125 0 6 4 10 9 10 5 0 12 8 15 18 3 9 26 48 51 87 25 38
45 72 45 76 0 10 -257 9 -305 -1z"/>
<path d="M2183 1917 c-29 -18 -53 -37 -53 -44 0 -10 140 -245 234 -393 13 -19
35 -55 50 -79 27 -42 28 -43 42 -22 9 12 23 21 34 21 18 0 70 -53 70 -71 0
-18 -16 -9 -38 21 -25 33 -52 40 -52 13 0 -9 12 -32 27 -51 24 -33 25 -35 6
-30 -16 4 -4 -22 60 -126 44 -72 141 -230 214 -351 73 -121 137 -221 141 -223
7 -2 50 63 91 138 9 16 69 114 133 217 64 103 132 212 150 242 18 30 43 69 55
88 l22 33 -40 65 c-23 36 -44 65 -48 65 -4 0 -40 -53 -80 -117 -39 -65 -116
-190 -170 -278 -54 -88 -104 -160 -111 -160 -12 0 -111 154 -233 363 -30 52
-58 89 -61 83 -13 -20 -26 -11 -20 14 5 21 -1 29 -45 56 -28 17 -48 36 -45 41
3 5 17 2 31 -7 14 -9 26 -15 28 -13 3 3 -40 73 -272 452 -26 44 -52 81 -58 82
-5 2 -33 -11 -62 -29z"/>
<path d="M3196 891 c-20 -33 -36 -63 -36 -69 0 -28 215 -151 266 -152 11 0 25
-5 32 -12 7 -7 51 -14 102 -16 l90 -4 0 76 0 76 -63 0 c-109 0 -224 44 -308
119 l-46 40 -37 -58z"/>
</g>
</svg>
